<?xml version="1.0" encoding="UTF-8" standalone="no"?>
<!-- Uploaded to: SVG Repo, www.svgrepo.com, Generator: SVG Repo Mixer Tools -->

<svg
   fill="#000000"
   height="900"
   width="900"
   version="1.1"
   id="Capa_1"
   viewBox="0 0 529.61288 529.61288"
   xml:space="preserve"
   sodipodi:docname="todolist_head_icon.svg"
   inkscape:version="1.4.2 (f4327f4, 2025-05-13)"
   xmlns:inkscape="http://www.inkscape.org/namespaces/inkscape"
   xmlns:sodipodi="http://sodipodi.sourceforge.net/DTD/sodipodi-0.dtd"
   xmlns="http://www.w3.org/2000/svg"
   xmlns:svg="http://www.w3.org/2000/svg"><defs
   id="defs6"><inkscape:path-effect
     effect="fillet_chamfer"
     id="path-effect6"
     is_visible="true"
     lpeversion="1"
     nodesatellites_param="F,0,0,1,0,0,0,1 @ F,0,0,1,0,0,0,1 @ F,0,0,1,0,0,0,1 @ F,0,0,1,0,0,0,1 @ F,0,0,1,0,0,0,1 @ F,0,0,1,0,0,0,1 @ F,0,0,1,0,0,0,1 @ F,0,0,1,0,0,0,1"
     radius="0"
     unit="px"
     method="auto"
     mode="F"
     chamfer_steps="1"
     flexible="false"
     use_knot_distance="true"
     apply_no_radius="true"
     apply_with_radius="true"
     only_selected="false"
     hide_knots="false" /></defs><sodipodi:namedview
   id="namedview6"
   pagecolor="#ffffff"
   bordercolor="#000000"
   borderopacity="0.25"
   inkscape:showpageshadow="2"
   inkscape:pageopacity="0.0"
   inkscape:pagecheckerboard="true"
   inkscape:deskcolor="#d1d1d1"
   inkscape:zoom="1.00875"
   inkscape:cx="317.22429"
   inkscape:cy="326.64188"
   inkscape:window-width="1920"
   inkscape:window-height="1009"
   inkscape:window-x="-8"
   inkscape:window-y="-8"
   inkscape:window-maximized="1"
   inkscape:current-layer="Capa_1" />

<path
   style="fill:#ffffff;stroke-width:0.588459"
   id="rect6"
   width="529.61285"
   height="529.61285"
   x="30.099617"
   y="29.086044"
   inkscape:path-effect="#path-effect6"
   sodipodi:type="rect"
   d="m 140.93695,29.086044 h 307.93819 c 61.40388,0 110.83733,49.433451 110.83733,110.837336 v 307.93818 c 0,61.40389 -49.43345,110.83734 -110.83733,110.83734 H 140.93695 c -61.403882,0 -110.837333,-49.43345 -110.837333,-110.83734 V 139.92338 c 0,-61.403885 49.433451,-110.837336 110.837333,-110.837336 z"
   ry="110.83733"
   transform="translate(-30.385473,-29.402528)" /><g
   id="g6"
   inkscape:label="g6"
   transform="translate(28.41081,28.892065)">
	<path
   d="M 362.965,21.384 H 289.62 L 286.638,7.99 C 285.614,3.323 281.467,0 276.685,0 h -82.618 c -4.782,0 -8.913,3.323 -9.953,7.99 l -2.967,13.394 h -73.36 c -26.835,0 -48.654,21.827 -48.654,48.662 v 352.06 c 0,26.835 21.819,48.662 48.654,48.662 h 255.179 c 26.835,0 48.67,-21.827 48.67,-48.662 V 70.046 C 411.635,43.211 389.8,21.384 362.965,21.384 Z m 16.866,400.721 c 0,9.295 -7.563,16.858 -16.866,16.858 H 107.786 c -9.287,0 -16.85,-7.563 -16.85,-16.858 V 70.046 c 0,-9.295 7.563,-16.857 16.85,-16.857 h 66.294 l -1.692,7.609 c -0.684,3.02 0.062,6.188 1.988,8.596 1.94,2.415 4.876,3.82 7.965,3.82 h 106.082 c 3.091,0 6.026,-1.405 7.951,-3.82 1.942,-2.415 2.687,-5.575 2.004,-8.596 l -1.692,-7.609 h 66.279 c 9.303,0 16.866,7.563 16.866,16.857 z"
   id="path1" />
	<path
   d="m 170.835,188.426 h 43.249 l -10.279,-7.019 c -14.506,-9.899 -18.232,-29.693 -8.325,-44.197 9.893,-14.489 29.693,-18.239 44.197,-8.324 l 1.694,1.157 v -12.136 c 0,-7.866 -6.383,-14.248 -14.242,-14.248 h -56.294 c -7.857,0 -14.24,6.383 -14.24,14.248 v 56.271 c 0,7.867 6.383,14.248 14.24,14.248 z"
   id="path2" />
	<path
   d="m 303.256,110.313 -49.85,47.194 -22.704,-15.49 c -7.221,-4.962 -17.13,-3.083 -22.099,4.162 -4.954,7.251 -3.09,17.144 4.178,22.098 l 33.28,22.727 c 2.718,1.864 5.839,2.772 8.961,2.772 3.96,0 7.888,-1.474 10.933,-4.356 l 59.167,-56.014 c 6.382,-6.033 6.645,-16.104 0.62,-22.479 -6.056,-6.375 -16.105,-6.647 -22.486,-0.614 z"
   id="path3" />
	<path
   d="M 170.835,297.669 H 214.1 l -10.295,-7.027 c -14.506,-9.901 -18.232,-29.693 -8.325,-44.197 9.893,-14.498 29.693,-18.248 44.197,-8.325 l 1.694,1.158 v -12.136 c 0,-7.865 -6.383,-14.248 -14.242,-14.248 h -56.294 c -7.857,0 -14.24,6.383 -14.24,14.248 v 56.279 c 0,7.865 6.383,14.248 14.24,14.248 z"
   id="path4" />
	<path
   d="m 303.256,219.555 -49.85,47.186 -22.704,-15.49 c -7.221,-4.97 -17.13,-3.098 -22.099,4.162 -4.954,7.253 -3.09,17.144 4.178,22.099 l 33.28,22.727 c 2.718,1.864 5.839,2.772 8.961,2.772 3.96,0 7.888,-1.476 10.933,-4.356 l 59.167,-56.007 c 6.382,-6.033 6.645,-16.096 0.62,-22.479 -6.056,-6.376 -16.105,-6.64 -22.486,-0.614 z"
   id="path5" />
	<path
   d="m 227.129,322.135 h -56.294 c -7.857,0 -14.24,6.383 -14.24,14.248 v 56.271 c 0,7.865 6.383,14.248 14.24,14.248 h 56.294 c 7.859,0 14.242,-6.383 14.242,-14.248 v -56.271 c 0,-7.865 -6.383,-14.248 -14.242,-14.248 z"
   id="path6" />
</g></svg>
